<?xml version="1.0" encoding="UTF-8"?>
<svg id="Layer_1" data-name="Layer 1" xmlns="http://www.w3.org/2000/svg" viewBox="0 0 64 64">
  <defs>
    <style>
      .cls-1 {
        fill: #000;
      }

      .cls-1, .cls-2, .cls-3, .cls-4 {
        stroke-width: 0px;
      }

      .cls-2 {
        fill: #221f1f;
      }

      .cls-3 {
        fill: #fff;
      }

      .cls-4 {
        fill: #d92827;
      }
    </style>
  </defs>
  <path class="cls-2" d="M63.52,26.66c-.48-2.86-1.34-5.59-2.53-8.14-.36-.8-.76-1.58-1.2-2.34-.2-.36-.41-.72-.63-1.07-.34-.55-.7-1.09-1.08-1.62-1.48-2.08-3.19-3.97-5.11-5.64-1.28-1.11-2.64-2.11-4.08-3.01-.37-.23-.75-.46-1.13-.67-.75-.43-1.53-.84-2.33-1.21-2.04-.95-4.2-1.69-6.46-2.19C36.72.26,34.37,0,31.97,0s-4.75.26-7,.77c-5.28,1.18-10.06,3.66-14,7.08-1.92,1.67-3.63,3.56-5.11,5.64-1.86,2.62-3.34,5.54-4.34,8.66-.48,1.46-.85,2.96-1.1,4.51-.3,1.74-.45,3.52-.45,5.34,0,1.12.06,2.22.18,3.31H.15c.15,1.55.42,3.05.79,4.52.49,1.96,1.16,3.84,2,5.63.36.8.76,1.57,1.2,2.33.2.36.4.71.62,1.06.91,1.47,1.93,2.85,3.06,4.15.43.5.88.99,1.35,1.46.18.18.36.36.55.53.4.4.82.78,1.25,1.15,1.29,1.12,2.68,2.15,4.14,3.05.34.22.69.43,1.05.63.76.43,1.53.83,2.33,1.21,2.05.95,4.22,1.69,6.48,2.2,2.25.51,4.59.77,7,.77s4.75-.26,7-.77c5.27-1.18,10.06-3.66,14-7.09.43-.37.85-.75,1.25-1.14.25-.24.49-.48.72-.72.41-.42.8-.84,1.18-1.28,3.25-3.73,5.64-8.22,6.88-13.17.64-2.51.97-5.13.97-7.83,0-1.82-.15-3.6-.45-5.34ZM62.03,39.59c-1.17,4.69-3.48,9.1-6.66,12.75-.38.43-.77.86-1.17,1.27-.4.42-.81.82-1.23,1.2-.07.07-.14.13-.22.19-3.92,3.55-8.66,6.01-13.78,7.2-2.28.53-4.62.8-7,.8s-4.72-.27-7-.8c-1.98-.46-3.89-1.11-5.73-1.93-.8-.36-1.59-.76-2.35-1.18-2.04-1.14-3.95-2.51-5.71-4.09-.07-.06-.14-.13-.21-.19-.37-.34-.74-.69-1.09-1.06-.45-.45-.89-.93-1.31-1.41-1.41-1.63-2.65-3.4-3.7-5.28-.43-.77-.83-1.56-1.18-2.36-.75-1.65-1.35-3.36-1.78-5.12-.35-1.39-.61-2.81-.76-4.26h0c-.12-1.1-.18-2.2-.18-3.32,0-1.75.15-3.49.44-5.18.77-4.62,2.54-8.91,5.27-12.75,1.27-1.78,2.71-3.41,4.29-4.86,3.95-3.63,8.78-6.19,14-7.4,2.27-.53,4.62-.81,7-.81s4.73.28,7,.81c1.96.45,3.87,1.1,5.69,1.92.8.36,1.59.76,2.36,1.18,2.14,1.19,4.13,2.63,5.95,4.3,1.58,1.45,3.02,3.08,4.29,4.86.66.92,1.26,1.87,1.8,2.84.43.77.82,1.55,1.19,2.35,1.08,2.4,1.84,4.93,2.28,7.57.29,1.68.44,3.42.44,5.17,0,2.59-.32,5.14-.94,7.59Z"/>
  <path class="cls-3" d="M62.53,26.83c-.44-2.64-1.2-5.17-2.28-7.57-.37-.8-.76-1.58-1.19-2.35-.54-.97-1.14-1.92-1.8-2.84-1.27-1.78-2.71-3.41-4.29-4.86-1.82-1.67-3.81-3.11-5.95-4.3-.77-.42-1.56-.82-2.36-1.18-1.82-.82-3.73-1.47-5.69-1.92-2.27-.53-4.62-.81-7-.81s-4.73.28-7,.81c-5.22,1.21-10.05,3.77-14,7.4-1.58,1.45-3.02,3.08-4.29,4.86-2.73,3.84-4.5,8.13-5.27,12.75-.29,1.69-.44,3.43-.44,5.18,0,1.12.06,2.22.18,3.31h0c.15,1.46.41,2.88.76,4.27.43,1.76,1.03,3.47,1.78,5.12.35.8.75,1.59,1.18,2.36,1.05,1.88,2.29,3.65,3.7,5.28.42.48.86.96,1.31,1.41.35.37.72.72,1.09,1.06.07.06.14.13.21.19,1.76,1.58,3.67,2.95,5.71,4.09.76.42,1.55.82,2.35,1.18,1.84.82,3.75,1.47,5.73,1.93,2.28.53,4.62.8,7,.8s4.72-.27,7-.8c5.12-1.19,9.86-3.65,13.78-7.2.08-.06.15-.12.22-.19.42-.38.83-.78,1.23-1.2.4-.41.79-.84,1.17-1.27,3.18-3.65,5.49-8.06,6.66-12.75.62-2.45.94-5,.94-7.59,0-1.75-.15-3.49-.44-5.17ZM59.78,39.02c-1.09,4.34-3.22,8.42-6.17,11.79-.35.4-.71.8-1.08,1.18-.37.39-.75.76-1.14,1.11-.06.06-.13.12-.2.17-3.63,3.29-8.01,5.56-12.75,6.66-2.11.49-4.27.74-6.47.74s-4.37-.25-6.48-.74c-1.53-.36-3.02-.83-4.47-1.44-.82-.33-1.62-.7-2.41-1.12-.76-.4-1.51-.83-2.24-1.3-1.28-.83-2.49-1.77-3.63-2.8-.02-.02-.05-.04-.07-.06-.01,0-.02-.02-.03-.02l-.1-.09c-.34-.32-.68-.64-1.01-.98-.24-.25-.49-.51-.73-.77-.16-.18-.32-.36-.48-.54-.89-1.01-1.7-2.1-2.43-3.23-.47-.73-.91-1.47-1.31-2.23-.41-.79-.79-1.59-1.13-2.41-.52-1.28-.96-2.59-1.29-3.93-.32-1.29-.56-2.6-.7-3.94-.11-1.01-.17-2.04-.17-3.07,0-1.62.14-3.23.41-4.79.71-4.28,2.35-8.25,4.87-11.8,1.18-1.64,2.51-3.15,3.97-4.49,3.66-3.36,8.12-5.73,12.95-6.85,2.1-.49,4.28-.75,6.48-.75s4.37.26,6.47.75c1.52.35,3.01.83,4.45,1.43.82.33,1.63.71,2.42,1.12.76.41,1.5.84,2.22,1.32,1.37.88,2.66,1.87,3.86,2.98.18.17.37.33.55.51.18.17.35.35.53.53,1.04,1.06,2.01,2.22,2.89,3.45.23.33.46.66.67.99.48.73.92,1.47,1.31,2.23.43.79.8,1.58,1.14,2.4h0c.82,1.98,1.41,4.04,1.76,6.19.27,1.55.4,3.16.4,4.78,0,2.39-.29,4.75-.86,7.02Z"/>
  <path class="cls-3" d="M60.64,32c0,2.39-.29,4.75-.86,7.02-1.09,4.34-3.22,8.42-6.17,11.79-.35.4-.71.8-1.08,1.18-.37.39-.75.76-1.14,1.11-.06.06-.13.12-.2.17-3.63,3.29-8.01,5.56-12.75,6.66-2.11.49-4.27.74-6.47.74s-4.37-.25-6.48-.74c-1.53-.36-3.02-.83-4.47-1.44L58.48,21.04c.82,1.97,1.41,4.03,1.76,6.18.27,1.55.4,3.16.4,4.78Z"/>
  <path class="cls-3" d="M42.89,5.5L5.45,42.94c-.52-1.28-.96-2.59-1.29-3.93-.32-1.29-.56-2.6-.7-3.94-.11-1.01-.17-2.04-.17-3.07,0-1.62.14-3.23.41-4.79.71-4.28,2.35-8.25,4.87-11.8,1.18-1.64,2.51-3.15,3.97-4.49,3.66-3.36,8.12-5.73,12.95-6.85,2.1-.49,4.28-.75,6.48-.75s4.37.26,6.47.75c1.52.35,3.01.83,4.45,1.43Z"/>
  <path class="cls-1" d="M58.48,21.03h0S21.02,58.49,21.02,58.49c-.82-.33-1.62-.7-2.41-1.12-.76-.4-1.51-.83-2.24-1.3-1.28-.83-2.49-1.77-3.63-2.8-.02-.02-.05-.04-.07-.06-.01,0-.02-.02-.03-.02l-.1-.09-1.74-1.75c-.16-.18-.32-.36-.48-.54-.89-1.01-1.7-2.1-2.43-3.23-.47-.73-.91-1.47-1.31-2.23-.41-.79-.79-1.59-1.13-2.41L42.89,5.5c.82.33,1.63.71,2.42,1.12.76.41,1.5.84,2.22,1.32,1.37.88,2.66,1.87,3.86,2.98.18.17.37.33.55.51.18.17.35.35.53.53,1.04,1.06,2.01,2.22,2.89,3.45.23.33.46.66.67.99.48.73.92,1.47,1.31,2.23.43.79.8,1.58,1.14,2.4Z"/>
  <path class="cls-4" d="M39.6,42.05h-14.78c-.01-.22.18-.27.31-.35.75-.47,1.46-.99,2.1-1.59,1.36-1.28,2.34-2.81,2.91-4.6.18-.55.29-1.11.41-1.68.08-.37.02-.44-.36-.39-.61.08-1.22.19-1.81.38-2.16.69-3.8,2.07-5.09,3.9-.36.51-.71,1.01-.99,1.57-.03.06-.06.11-.1.16-.05.06-.11.11-.19.09-.07-.03-.05-.11-.05-.17,0-.05,0-.1,0-.16,0-4.68,0-9.37,0-14.05,0-.11-.08-.29.07-.33.15-.04.22.13.29.25.79,1.26,1.74,2.39,2.92,3.3,1.19.93,2.53,1.55,3.99,1.92.37.09.74.16,1.11.23.19.04.27-.02.23-.24-.45-2.6-1.59-4.82-3.58-6.57-.57-.51-1.2-.95-1.84-1.37-.13-.08-.36-.14-.24-.39.12-.02.23,0,.35,0,4.74,0,9.47,0,14.2,0,.12,0,.2.02.1.15-.07.1-.18.14-.28.2-1.17.66-2.27,1.42-3.21,2.39-1.53,1.56-2.38,3.44-2.61,5.61-.02.21.05.26.24.23,2.26-.39,4.28-1.28,5.95-2.89.8-.77,1.49-1.64,2.08-2.59.07-.12.12-.28.32-.24v14.72c-.24.02-.27-.2-.35-.34-.74-1.33-1.64-2.53-2.78-3.54-1.43-1.25-3.1-1.96-4.98-2.21-.05,0-.1,0-.16,0-.33,0-.34.02-.31.33.3,2.94,1.79,5.17,4.13,6.89.55.4,1.14.75,1.72,1.09.12.07.29.1.27.3Z"/>
</svg>